<?xml version="1.0" encoding="utf-8"?>
<!-- Uploaded to: SVG Repo, www.svgrepo.com, Generator: SVG Repo Mixer Tools -->
<svg width="800px" height="800px" viewBox="0 -0.46 321.395 321.395"
  xmlns="http://www.w3.org/2000/svg">
  <defs>
    <style>.a{fill:#ffffff;}.b{fill:#7abee6;}.c{fill:#211715;}.d{fill:#ffda71;}</style>
  </defs>
  <path class="a"
    d="M304.418,238.9c-.017-11.951-.077-36.41-.077-45.1,0,0,0-.121.006-.356-53.9-31.01-135.061-77.919-171.922-99.254-31.213,18.059-94.031,54.357-130.373,75.234,0,10.138.074,40.174.068,49.085,33.15,19.2,119.957,69.372,173.325,100.058,37.885-21.778,99.829-57.575,128.978-74.447v-.459C304.423,242.493,304.421,240.865,304.418,238.9Z" />
  <path class="b"
    d="M131.706,94.6C100.37,112.73,38.567,148.441,2.445,169.193c27.372,15.853,126.347,73.071,172.227,99.385,33.5-19.2,106.859-61.578,129.669-74.783,0,0,0-.121.006-.356-53.9-31.01-135.061-77.919-171.922-99.254Z" />
  <path class="c"
    d="M306.418,238.9q-.017-12.1-.046-24.2c-.014-7.08-.18-14.18-.025-21.259a2,2,0,0,0-.99-1.727q-35.7-20.539-71.365-41.138-35.376-20.419-70.736-40.866-14.913-8.622-29.822-17.25a2.022,2.022,0,0,0-2.019,0q-23.761,13.748-47.534,27.477-27.843,16.083-55.7,32.141-13.564,7.815-27.137,15.616a2.011,2.011,0,0,0-.99,1.727q0,17.325.052,34.651.008,4.278.013,8.555a38.656,38.656,0,0,0,.039,6.145c.23,1.362,1.723,1.905,2.8,2.531L5.7,222.886l6.032,3.491Q26.9,235.157,42.08,243.929q18.662,10.79,37.328,21.569,19.842,11.46,39.687,22.909,19.078,11.006,38.164,22c5.65,3.254,11.22,6.807,17.015,9.792,1.709.88,3.314-.559,4.778-1.4l4.2-2.413q4.42-2.544,8.84-5.089,19.689-11.337,39.363-22.7,19.755-11.4,39.5-22.815,16.167-9.344,32.33-18.7c1.141-.661,2.865-1.267,3.1-2.705a34.234,34.234,0,0,0,.031-5.482c0-2.574-4-2.579-4,0q0,2.607,0,5.216l.99-1.727q-22.851,13.227-45.715,26.433-27.7,16-55.409,31.978-13.923,8.025-27.854,16.036h2.019q-36.443-20.954-72.843-41.982Q67.646,254.093,31.7,233.3,17.411,225.044,3.13,216.777l.99,1.727c.008-13.314-.041-26.628-.06-39.942q-.007-4.572-.008-9.143l-.991,1.727q25.616-14.715,51.2-29.489Q81.6,125.88,108.934,110.08q12.252-7.083,24.5-14.168h-2.019q29.592,17.127,59.2,34.23,37.073,21.42,74.163,42.811,19.275,11.115,38.561,22.213l-.991-1.727c-.155,7.079.011,14.179.025,21.259q.024,12.1.046,24.2C302.422,241.472,306.422,241.477,306.418,238.9Z" />
  <path class="c"
    d="M173.07,268.444q0,20.736.072,41.472.007,4.194.01,8.389c0,2.574,4,2.578,4,0,0-13.5-.05-27-.072-40.5q-.008-4.683-.01-9.366c0-2.574-4-2.578-4,0Z" />
  <path class="c"
    d="M3.431,172.066q12.11,7.017,24.226,14.023,17.038,9.855,34.083,19.7,19.348,11.179,38.7,22.349,19.039,10.988,38.085,21.96,16.109,9.279,32.23,18.536l3.306,1.9c2.236,1.283,4.254-2.172,2.018-3.454q-15.582-8.934-31.146-17.9-18.829-10.842-37.647-21.7-19.458-11.228-38.91-22.465Q50.91,194.914,33.444,184.815q-12.863-7.44-25.721-14.886L5.45,168.612c-2.232-1.293-4.248,2.163-2.019,3.454Z" />
  <path class="c"
    d="M175.093,283.567q-13.441-7.707-26.865-15.444-16.377-9.43-32.745-18.877Q98.6,239.505,81.724,229.755q-15.236-8.8-30.468-17.609-11.166-6.457-22.331-12.92-.992-.576-1.985-1.15c-2.232-1.293-4.248,2.162-2.019,3.454Q35.43,207.617,45.944,213.7q14.86,8.6,29.723,17.181,16.79,9.7,33.584,19.393,16.566,9.559,33.138,19.108,13.9,8.01,27.822,16l2.863,1.642c2.237,1.282,4.254-2.172,2.019-3.454Z" />
  <path class="c"
    d="M164.115,293.447q-13.019-7.465-26-15c-2.232-1.293-4.248,2.162-2.019,3.453q12.987,7.522,26,15c2.237,1.283,4.254-2.172,2.019-3.454Z" />
  <path class="d"
    d="M249.423,281.526c-4.618,2.652-19.594,11.3-26.406,15.225-6.573-3.775-18.231-10.493-26.936-15.517,8.226-4.732,17.274-9.942,26.426-15.225C231.441,271.167,243.172,277.938,249.423,281.526Z" />
  <path class="c"
    d="M196.081,283.234h.01l-1.009-.273q12.546,7.255,25.113,14.476a8.03,8.03,0,0,0,2.556,1.278c1,.135,1.928-.612,2.756-1.09l4.73-2.726,10.752-6.2q4.72-2.724,9.443-5.442a2.019,2.019,0,0,0,0-3.454q-13.471-7.734-26.915-15.517c-2.234-1.29-4.25,2.166-2.019,3.454q13.452,7.767,26.915,15.517V279.8q-13.215,7.59-26.4,15.225h2.018q-6.6-3.792-13.2-7.6-3.7-2.13-7.4-4.264l-3.672-2.121c-1.027-.593-2.463-1.809-3.677-1.809-2.574,0-2.578,4,0,4Z" />
  <path class="c"
    d="M286.81,226.561q-18.458,10.689-36.931,21.348-24.841,14.343-49.7,28.659-12.856,7.4-25.721,14.785c-2.234,1.279-.221,4.736,2.019,3.454q23.758-13.6,47.456-27.312,23.481-13.537,46.948-27.1,8.974-5.187,17.947-10.381c2.227-1.29.215-4.748-2.019-3.454Z" />
  <path class="c"
    d="M175.9,270.179q26.069-14.941,52.086-29.973,28.068-16.185,56.119-32.4,10.623-6.139,21.243-12.285c2.227-1.289.215-4.747-2.019-3.454Q281.169,204.9,258.989,217.7q-29.14,16.827-58.3,33.622-13.4,7.713-26.807,15.406c-2.233,1.28-.221,4.737,2.019,3.454Z" />
  <path class="a"
    d="M262.249,165.587c-.013-8.922-.058-27.181-.058-33.672,0,0,0-.09.005-.266-40.238-23.15-100.831-58.17-128.349-74.1-23.3,13.482-70.2,40.58-97.331,56.166,0,7.568.056,29.992.051,36.644,24.749,14.33,89.555,51.791,129.4,74.7,28.284-16.259,74.528-42.984,96.289-55.579v-.343C262.252,168.27,262.251,167.055,262.249,165.587Z" />
  <path class="d"
    d="M132.1,58.561c-23.831,13.786-69.115,39.95-95.585,55.156,0,7.568.056,29.992.051,36.644,10.763,6.233,29.1,16.839,49.67,28.722-.015-9.132-.054-29.307-.058-36.983,41.833-24.166,77.077-44.545,96.955-56.052-19.693-11.377-37.516-21.684-49.287-28.5Z" />
  <path class="c"
    d="M264.249,165.587c-.017-11.3-.3-22.637-.053-33.938a2,2,0,0,0-.991-1.727q-26.644-15.33-53.265-30.7-26.406-15.242-52.8-30.5Q146,62.271,134.856,55.824a2.022,2.022,0,0,0-2.019,0Q115.073,66.1,97.3,76.367,76.566,88.343,55.822,100.3q-10.155,5.851-20.315,11.691a2.012,2.012,0,0,0-.991,1.727q0,13.087.04,26.174.006,3.168.009,6.336c0,1.423-.307,3.282.074,4.666.407,1.478,3.19,2.51,4.45,3.24l4.6,2.664q25.283,14.63,50.579,29.237,29.014,16.757,58.045,33.482l6.622,3.812,3.049,1.754a24.646,24.646,0,0,0,3.205,1.806c1.32.511,2.554-.546,3.655-1.179l3.327-1.913,6.727-3.873q14.649-8.436,29.29-16.889,26.814-15.475,53.612-30.982c1.092-.632,2.346-1.125,2.448-2.57.091-1.285,0-2.608,0-3.9,0-2.573-4-2.578-4,0q0,1.947,0,3.9l.991-1.727q-17.022,9.852-34.054,19.689-20.719,11.972-41.45,23.923-10.391,5.988-20.785,11.967h2.019q-27.173-15.625-54.314-31.3Q85.84,176.551,59.035,161.05,48.3,154.845,37.577,148.634l.99,1.727c.006-9.911-.03-19.822-.045-29.734q0-3.454-.006-6.91l-.99,1.727q19.149-11,38.273-22.046Q96.161,81.65,116.512,69.885q9.174-5.3,18.344-10.607h-2.019q22.086,12.783,44.184,25.548,27.671,15.989,55.355,31.954,14.4,8.3,28.81,16.6l-.99-1.727c-.248,11.3.036,22.635.053,33.938C260.253,168.161,264.253,168.166,264.249,165.587Z" />
  <path class="c"
    d="M163.684,187.644c0,8.464.06,16.927.061,25.391,0,2.573,4,2.578,4,0,0-8.464-.06-16.927-.061-25.391,0-2.573-4-2.578-4,0Z" />
  <path class="c"
    d="M167.078,186.408q-22.767-13.054-45.486-26.189Q97.081,146.077,72.583,131.91q-9.279-5.365-18.555-10.737c-2.231-1.292-4.248,2.163-2.019,3.454q19.355,11.211,38.723,22.394,25.449,14.7,50.913,29.378,11.7,6.741,23.414,13.463c2.237,1.283,4.254-2.172,2.019-3.454Z" />
  <path class="c"
    d="M166.56,189.377q16.453-9.429,32.875-18.917,17.652-10.181,35.295-20.377,6.756-3.9,13.509-7.813c2.228-1.289.216-4.747-2.018-3.453q-13.989,8.1-27.988,16.176-18.321,10.579-36.655,21.14-8.516,4.9-17.037,9.79c-2.233,1.28-.22,4.738,2.019,3.454Z" />
  <path class="c"
    d="M87.3,143.76q21.956-12.682,43.907-25.371,17.827-10.3,35.652-20.615,7.624-4.41,15.247-8.823c2.227-1.289.216-4.747-2.019-3.454q-14.742,8.535-29.49,17.061-19.836,11.47-39.675,22.934Q98.1,132.9,85.285,140.306c-2.229,1.288-.217,4.745,2.018,3.454Z" />
  <path class="c"
    d="M84.174,142.082c.013,11.343.061,22.686.062,34.029,0,2.574,4,2.578,4,0,0-11.343-.049-22.686-.062-34.029,0-2.573-4-2.578-4,0Z" />
  <path class="b"
    d="M147.3,142.758a15.793,15.793,0,0,1-1.6,6.165c-1.986,3.9-5.818,6.569-9.853,8.269s-4.613,1.258-8.788,2.576c-3.255,1.027-6.663,2.506-8.058,5.8a19.245,19.245,0,0,0-1.031,5.231c-.3,6.748-.246,13.767-.33,20.711a2.279,2.279,0,0,1-1.57,2.19,32.139,32.139,0,0,1-14.655.781,2.925,2.925,0,0,1-1.3-.873,3.959,3.959,0,0,1-1.1-1.831c-.376-3.152-.557-6.188-.664-9.228-3.493.776-7.485,2.116-11.2,1.209-2.583-.63-5-2.6-5.4-5.229l-.328-2.171c-.577-10.62-1.153-9.283-1.73-19.9-.194-3.573-.35-7.341,1.282-10.526a17.826,17.826,0,0,1,5.664-5.909,69.03,69.03,0,0,1,14.464-8.107S140.619,141.394,147.3,142.758Z" />
  <path class="a"
    d="M139.221,146.317c2.3-1.288,5.263-2.738,8.123-4.452,4.746-2.84,9.258-6.429,10.191-11.246a20.126,20.126,0,0,0-.03-6.288c-.913-7.372-2.657-16.782-7.251-22.847-2.8-3.711-7.22-8.5-11.53-10.708,0,0-7.477-3.62-14.741-4.094-11.662-.76-17.63,4.211-17.63,4.211a35.256,35.256,0,0,0-13.2,20.8l-2.036,11.716-.735,4.229Z" />
  <path class="a"
    d="M92.472,204.028a7.359,7.359,0,0,1,1.429-6.02,18.158,18.158,0,0,1,5.436-4.375c2.1,1.644,10.632,1.962,16.738.07a2.155,2.155,0,0,0,.583-.281c.075.712.123,1.153.123,1.153.635,5.8-2.878,8.132-5.108,9.459a33.619,33.619,0,0,1-8.5,3.578,13.9,13.9,0,0,1-5.547.544A6.453,6.453,0,0,1,93,205.306,4.975,4.975,0,0,1,92.472,204.028Z" />
  <path class="a"
    d="M74.609,191.461a8.013,8.013,0,0,1,1.143-2.133,19.283,19.283,0,0,1,5.892-4.614,9.923,9.923,0,0,1,3.808-1.581,8.118,8.118,0,0,0,1.708.628c3.715.907,7.706-.432,11.2-1.208.075,2.19.191,4.379.39,6.61l-1.569.259c.117,2.5-2.1,4.451-4.251,5.73a32.523,32.523,0,0,1-8.219,3.459,13.348,13.348,0,0,1-5.363.52,6.2,6.2,0,0,1-4.469-2.752A5.834,5.834,0,0,1,74.609,191.461Z" />
  <path class="c"
    d="M114.781,194.575a7.173,7.173,0,0,1-2.6,6.744,27.787,27.787,0,0,1-9.546,4.365c-2.774.734-8.287,1.217-8.341-3.036-.048-3.8,3.874-6,6.706-7.677,2.215-1.308.2-4.767-2.019-3.453-3.347,1.978-6.708,4.194-8.125,8a7.646,7.646,0,0,0,3.415,9.613c3.843,2.013,8.374.934,12.235-.467a28.608,28.608,0,0,0,8.717-4.684,10.7,10.7,0,0,0,3.557-9.4,2.054,2.054,0,0,0-2-2,2.014,2.014,0,0,0-2,2Z" />
  <path class="c"
    d="M84.654,181.242a16.03,16.03,0,0,0-4.947,2.3,23.828,23.828,0,0,0-4.18,3.047c-2.462,2.346-4.081,6.009-2.991,9.4,1.152,3.586,4.914,5.327,8.474,5.234,3.839-.1,7.774-1.632,11.153-3.361,3.325-1.7,7.049-4.282,7.021-8.44-.017-2.573-4.017-2.578-4,0,.02,2.939-4.316,4.71-6.5,5.691a29.355,29.355,0,0,1-4.9,1.674,8.873,8.873,0,0,1-5.219.092c-2.89-1.084-2.818-4.228-1.172-6.419a13.333,13.333,0,0,1,3.723-3.089,14.635,14.635,0,0,1,4.607-2.272c2.521-.513,1.454-4.37-1.063-3.857Z" />
  <path class="c"
    d="M100.579,129.989a70.434,70.434,0,0,0-15.936,9.055A17.465,17.465,0,0,0,78.9,145.7a20.213,20.213,0,0,0-1.288,8.816c.145,4.315.56,8.6,1.078,12.882.468,3.871.445,7.814,1.14,11.65a8.57,8.57,0,0,0,5.238,6.095c3.36,1.444,7.061.907,10.516.126,2.51-.567,1.448-4.425-1.063-3.857-3.733.844-10.033,1.5-10.863-3.615-.547-3.376-.543-6.857-.955-10.287-.432-3.6-.786-7.185-.987-10.8a26.637,26.637,0,0,1,.258-7.65,11.423,11.423,0,0,1,4.123-6.085,59.884,59.884,0,0,1,15.547-9.123,2.067,2.067,0,0,0,1.4-2.461,2.012,2.012,0,0,0-2.46-1.4Z" />
  <path class="c"
    d="M100.164,149.275c-3.427,2.382-4.287,6.117-4.349,10.043-.063,3.982.149,7.963.273,11.942.163,5.22.14,10.447.49,15.659.162,2.415-.015,5.366,1.518,7.367,1.471,1.92,3.274,2.323,5.555,2.563a32.691,32.691,0,0,0,6.583-.023,25.468,25.468,0,0,0,6.682-1.313c2.61-1.017,2.724-3.519,2.748-5.939.026-2.75.036-5.5.063-8.248.026-2.719.067-5.439.157-8.157a21.132,21.132,0,0,1,.869-6.581c1.335-3.616,6.074-4.806,9.41-5.611,4.326-1.044,8.49-2.4,12.092-5.128a17.661,17.661,0,0,0,7.089-13.984c.1-2.575-3.9-2.57-4,0a13.521,13.521,0,0,1-5.209,10.6,24.277,24.277,0,0,1-9.661,4.338c-3.565.792-7.351,1.8-10.27,4.1-3.241,2.55-4.041,6.447-4.248,10.373-.263,4.957-.232,9.935-.266,14.9q-.012,1.821-.029,3.641a6.473,6.473,0,0,1-.019,1.7c-.113.321-.066.2-.277.316a10.29,10.29,0,0,1-2.864.679,29.023,29.023,0,0,1-3.068.386,32,32,0,0,1-5.782-.046,4.833,4.833,0,0,1-1.833-.38c-.931-.554-.906-1.627-1-2.559-.458-4.709-.531-9.44-.625-14.167-.09-4.49-.319-8.977-.379-13.468-.022-1.691-.05-3.4.08-5.083.011-.14.022-.28.036-.42.041-.4-.026.122.011-.066a9.215,9.215,0,0,1,.433-1.563,5.21,5.21,0,0,1,1.805-2.414c2.1-1.46.1-4.929-2.019-3.454Z" />
  <path class="c"
    d="M105.344,89.166a37.579,37.579,0,0,0-14.117,21.991c-.535,2.511,3.32,3.584,3.857,1.063a33.437,33.437,0,0,1,12.279-19.6,2.065,2.065,0,0,0,.717-2.736,2.013,2.013,0,0,0-2.736-.718Z" />
  <path class="a"
    d="M93.073,131.912c-2.224-1.387-3.149-3.73-3.512-6.217-.407-2.788.07-6.337,4.127-7.351a5.776,5.776,0,0,1,4.225.789,7.917,7.917,0,0,1,3.891,7.682c-.274,3.306-3.391,6.336-6.673,5.857A5.3,5.3,0,0,1,93.073,131.912Z" />
  <path class="c"
    d="M94.082,130.185a4.789,4.789,0,0,1-1.2-1.091c.179.224-.08-.121-.118-.176q-.142-.216-.27-.439c-.068-.12-.133-.241-.195-.364,0,0-.247-.563-.135-.281a10.884,10.884,0,0,1-.527-1.825c-.036-.175-.068-.35-.1-.527-.023-.136-.076-.619-.018-.083-.027-.253-.053-.5-.066-.759a11.088,11.088,0,0,1,.031-1.4c.028-.374,0,0-.01.067.026-.127.046-.256.075-.383.062-.281.152-.548.241-.821-.145.45.086-.167.161-.3s.481-.637.185-.309a7.33,7.33,0,0,1,.518-.525c.232-.209-.39.224.072-.053.155-.092.3-.193.464-.278.111-.06.224-.118.339-.167-.287.124.028,0,.076-.019a8.126,8.126,0,0,1,.907-.24c-.447.076.185.012.35.015s.33.012.494.03c.141.014.135.014-.017,0,.106.018.211.041.314.067a4.093,4.093,0,0,1,1.6.774c.023.016.3.226.1.065.108.083.212.173.315.262a8.939,8.939,0,0,1,.78.765,5.348,5.348,0,0,1,1.266,2.531c-.007-.033.112.588.068.309s.034.362.031.326a8.924,8.924,0,0,1,.019.925c0,.178-.014.355-.029.532.007-.087.073-.34-.01.072a8.048,8.048,0,0,1-.268.979c-.2.6.086-.15-.078.179-.09.184-.187.363-.292.539a2.539,2.539,0,0,1-.474.661,6.713,6.713,0,0,1-.729.7c.216-.177-.041.027-.077.05-.168.108-.334.218-.51.314a3.428,3.428,0,0,1-1.436.41,3.112,3.112,0,0,1-1.848-.536,2,2,0,0,0-2.019,3.454c3.7,2.2,8,.706,10.326-2.693a9.511,9.511,0,0,0-.039-10.192c-1.981-3.046-5.7-5.311-9.4-4.283a7.482,7.482,0,0,0-5.485,7.081c-.247,3.835,1.314,7.961,4.6,10.087a2,2,0,1,0,2.019-3.454Z" />
  <path class="c" d="M105.936,105.522v22.294c0,2.574,4,2.578,4,0V105.522c0-2.573-4-2.578-4,0Z" />
  <path class="a"
    d="M107.241,131.608c-6.151,1.042-12.429,3.442-21.5,4.947,5.591,2.695,16.106,7.872,26.161,12.9,8.737-3.557,11.224-4.177,16.692-6.274C119.446,138.462,107.259,131.6,107.241,131.608Z" />
  <path class="c"
    d="M106.71,129.679c-7.252,1.256-14.23,3.722-21.5,4.948-1.664.28-1.971,2.935-.477,3.655,5.911,2.852,11.8,5.759,17.674,8.676q2.647,1.313,5.291,2.631c.924.461,1.843.932,2.771,1.384a3.16,3.16,0,0,0,3.079-.037q4.138-1.668,8.332-3.189c2.418-.87,4.845-1.716,7.246-2.634,1.479-.566,2.138-2.8.478-3.656-4.738-2.449-9.427-4.991-14.1-7.56-2.408-1.324-4.776-2.823-7.252-4.016-2.309-1.113-4.34,2.335-2.019,3.454,2.476,1.193,4.844,2.692,7.253,4.016,4.673,2.569,9.362,5.111,14.1,7.56l.478-3.655c-5.555,2.124-11.178,4.033-16.691,6.274l1.541.2c-8.7-4.35-17.4-8.678-26.161-12.9l-.478,3.656c7.27-1.226,14.247-3.691,21.5-4.948a2.016,2.016,0,0,0,1.4-2.46A2.046,2.046,0,0,0,106.71,129.679Z" />
  <path class="a"
    d="M123.346,140.87c.59-4.779,5.592-8.765,12.015-6,.97,2.982,2.655,7.49,3.691,11.258-1.412,1.142-2.633,2.134-2.633,2.134-2.066,2.494-6.63,2.045-9.112.535A8.247,8.247,0,0,1,123.346,140.87Z" />
  <path class="c"
    d="M134.669,132.487a10.875,10.875,0,0,0-8.109.606,9.931,9.931,0,0,0-4.665,5.356c-1.98,5.2,1.152,11.056,6.246,12.922,3.117,1.141,7.38.975,9.692-1.7a2.05,2.05,0,0,0,0-2.829,2.018,2.018,0,0,0-2.828,0c-.1.111-.2.212-.3.321-.066.074-.369.316-.058.08a5.244,5.244,0,0,1-.665.405c-.1.053-.449.166-.085.043-.113.038-.223.078-.337.112a6.626,6.626,0,0,1-.88.2c.4-.063,0,0-.107,0-.155.006-.309.019-.464.021-.281.005-.56-.014-.84-.026-.1,0-.51-.051-.12,0-.123-.016-.246-.038-.368-.061a9.5,9.5,0,0,1-.984-.233c-.257-.075-.509-.164-.76-.256.386.142-.264-.128-.372-.186a6.581,6.581,0,0,1-.663-.416c-.487-.338.161.14-.106-.082-.138-.114-.274-.23-.406-.35q-.288-.263-.555-.546c-.076-.082-.151-.165-.225-.25,0,0-.343-.419-.156-.179s-.129-.184-.131-.187c-.06-.087-.119-.175-.175-.264a7.953,7.953,0,0,1-.419-.741c-.056-.112-.109-.227-.161-.342.027.061.144.4.032.063-.076-.233-.16-.461-.224-.7-.05-.187-.09-.375-.129-.564-.007-.036-.075-.5-.031-.157.043.331-.01-.163-.014-.228a10.558,10.558,0,0,1,.027-1.331c-.026.449-.011.068.033-.155a8.044,8.044,0,0,1,.2-.805c.055-.176.124-.346.182-.521.14-.425-.164.268-.012.033.06-.094.1-.211.151-.311q.142-.276.306-.541c.071-.115.549-.764.2-.332a8.389,8.389,0,0,1,.849-.919c.076-.069.556-.463.334-.294-.261.2.115-.077.139-.093.119-.077.236-.157.358-.23.2-.124.414-.239.628-.343.025-.012.46-.2.158-.077-.285.118.182-.063.24-.082a7.626,7.626,0,0,1,.788-.226c.176-.041.871-.13.375-.084a12.728,12.728,0,0,1,1.779-.018c.086,0,.392.047-.023-.011.174.024.347.055.519.089.359.071.712.165,1.063.27a2,2,0,1,0,1.063-3.857Z" />
  <path class="c"
    d="M140.793,118.459c-.076-.534-.03-.233,0,.079.022.262.043.523.062.785.053.749.093,1.5.128,2.249.075,1.641.13,3.289.091,4.932-.007.321-.017.643-.039.964-.012.187-.024.9-.022.364,0,.529-.181,0,.074-.043-.281.052-.819.627-1.112.863-2.011,1.624-3.965,3.316-5.98,4.934a1.945,1.945,0,0,0-.514,1.946c1.249,3.789,2.662,7.525,3.716,11.376a2.023,2.023,0,0,0,2.938,1.2c8.293-4.639,19.882-9.366,19.636-20.62a65.372,65.372,0,0,0-2.318-14.635,35.353,35.353,0,0,0-5.68-12.653c-3.28-4.3-7.191-8.592-12.034-11.146-2.276-1.2-4.3,2.251-2.019,3.454,3.864,2.038,7.016,5.321,9.762,8.665a30.465,30.465,0,0,1,5.578,10.824,74.983,74.983,0,0,1,2.479,12.581c.286,2.381.512,4.948-.422,7.222a13.139,13.139,0,0,1-3.494,4.572c-3.931,3.564-8.923,5.718-13.507,8.282l2.938,1.2c-1.054-3.852-2.467-7.588-3.716-11.377l-.515,1.946c2.155-1.73,4.238-3.549,6.4-5.27,1.5-1.191,1.765-2.354,1.838-4.189a53.6,53.6,0,0,0-.406-9.56,2.013,2.013,0,0,0-2.46-1.4,2.054,2.054,0,0,0-1.4,2.461Z" />
  <path class="a"
    d="M107.092,71.362A23.034,23.034,0,0,0,112.577,87.4,19.877,19.877,0,0,0,140.5,89.425a11.488,11.488,0,0,0,7.635-2.39,7.284,7.284,0,0,0,2.771-6.5,5.294,5.294,0,0,0-3.085-3.895,18.98,18.98,0,0,0-6.568-22.174c-8.9-6.321-21.474-5.451-28.785,2.866A22.461,22.461,0,0,0,107.092,71.362Z" />
  <path class="a"
    d="M109.989,60.831a22.736,22.736,0,0,0-2.6,7.5,38.071,38.071,0,0,0,15.638-1.885,1.087,1.087,0,0,1,.861.074c.631.355-.131,1.733-.487,2.363,2.24.631,7.725-.4,10.149-1.732,1.348,3.276,2.723,4.983,5.365,6.22L146.01,76.2a5.059,5.059,0,0,1,1.813.445,18.994,18.994,0,0,0-6.574-22.177c-8.9-6.321-21.474-5.451-28.785,2.866A20.56,20.56,0,0,0,109.989,60.831Z" />
  <path class="c"
    d="M150.058,76.325a21.143,21.143,0,0,0-7.006-22.991,24.253,24.253,0,0,0-23.614-3.308c-8.2,3.365-13.342,11.021-14.234,19.729a24.632,24.632,0,0,0,10.012,22.638c8.186,5.716,20.023,4.71,27.263-2.075,1.883-1.764-.95-4.588-2.828-2.828a18.21,18.21,0,0,1-20.042,2.862c-6.732-3.362-10.491-10.586-10.532-17.961-.039-7.089,3.334-13.988,9.583-17.57a20.1,20.1,0,0,1,19.62.129A17.181,17.181,0,0,1,146.2,75.261c-.792,2.456,3.069,3.508,3.857,1.064Z" />
  <path class="c"
    d="M146.01,78.2c.471.033-.219-.087.2.022.178.047.358.084.534.141.1.033.51.228.207.073.165.084.329.17.486.267.072.045.464.329.2.117a5.192,5.192,0,0,1,.412.373,4.848,4.848,0,0,1,.372.413c-.234-.3.072.134.113.2a4.82,4.82,0,0,1,.261.492c-.16-.356.034.139.057.22a4.123,4.123,0,0,1,.123.55c-.057-.395-.006.159,0,.242,0,.2-.009.39-.02.585-.024.447.068-.152-.042.247-.089.326-.263.956-.321,1.091a6.862,6.862,0,0,1-1.064,1.637,5.874,5.874,0,0,1-1.734,1.338,7.976,7.976,0,0,1-2.148.885,11.555,11.555,0,0,1-1.275.283q-.213.033,0,0c-.106.012-.212.023-.318.031-.245.021-.489.032-.735.038a2,2,0,0,0,0,4c4.771-.117,9.592-2.7,11.213-7.38a7.458,7.458,0,0,0-.689-6.514A7.567,7.567,0,0,0,146.01,74.2a2.01,2.01,0,0,0-2,2,2.049,2.049,0,0,0,2,2Z" />
  <path class="c"
    d="M119.708,78.637a3.162,3.162,0,0,1-1.29,2.382,2.459,2.459,0,0,1-1.811.343,2.76,2.76,0,0,1-1.993-1.5,3.228,3.228,0,0,1,.8-3.714,2.555,2.555,0,0,1,3.474.191A2.845,2.845,0,0,1,119.708,78.637Z" />
  <path class="c"
    d="M131.867,81.121a3.172,3.172,0,0,1-1.29,2.382,2.464,2.464,0,0,1-1.812.342,2.756,2.756,0,0,1-1.992-1.5,3.228,3.228,0,0,1,.8-3.714,2.554,2.554,0,0,1,3.473.191A2.85,2.85,0,0,1,131.867,81.121Z" />
  <path class="c"
    d="M131.625,67.684a17.412,17.412,0,0,0,2.686,4.728,10.642,10.642,0,0,0,3.6,2.688,2.156,2.156,0,0,0,1.541.2,2,2,0,0,0,.478-3.655,10.46,10.46,0,0,1-1.915-1.148l.4.313a8.786,8.786,0,0,1-1.543-1.558l.312.4a15.01,15.01,0,0,1-1.787-3.229l.2.478c-.04-.095-.08-.19-.119-.285a2.2,2.2,0,0,0-.919-1.195,2,2,0,0,0-2.737.717,1.929,1.929,0,0,0-.2,1.541Z" />
  <path class="c"
    d="M132.544,65.426c-2.283,1.2-6.187,2.135-8.608,1.53l1.195,2.938c.77-1.376,1.61-3.289.324-4.65-1.486-1.572-3.6-.465-5.3,0a37.754,37.754,0,0,1-12.112,1.136c-2.572-.142-2.564,3.858,0,4a43.455,43.455,0,0,0,8.119-.279c1.268-.168,2.527-.384,3.773-.675q.969-.227,1.923-.505.535-.156,1.064-.329c.142-.045.284-.092.425-.141q.42-.145.01,0l-.882-.514.149.135-.514-.883c-.2-.478.174-.436-.053-.035-.134.236-.249.484-.382.721a2.022,2.022,0,0,0,1.195,2.938,14.522,14.522,0,0,0,5.9-.1,19.353,19.353,0,0,0,5.794-1.833c2.278-1.2.259-4.655-2.019-3.454Z" />
  <path class="c"
    d="M142.875,125.491A118.442,118.442,0,0,0,156.9,126.9a2,2,0,0,0,0-4,110.619,110.619,0,0,1-12.963-1.262,2.063,2.063,0,0,0-2.46,1.4,2.016,2.016,0,0,0,1.4,2.46Z" />
  <path class="c"
    d="M94.579,106.311l11.58,7.527a2.014,2.014,0,0,0,2.736-.717,2.045,2.045,0,0,0-.717-2.737L96.6,102.857a2.016,2.016,0,0,0-2.737.717,2.046,2.046,0,0,0,.718,2.737Z" />
  <path class="a"
    d="M204.272,29.351c.348,0,.686.023,1.023.05a15.282,15.282,0,0,1,26.589,1.3c.487-.044.982-.072,1.488-.072A14.59,14.59,0,0,1,248.25,45.42c0,8.921-6.211,15.064-14.879,15.064a15.035,15.035,0,0,1-9.871-3.339,11.646,11.646,0,0,1-7.662,2.668c-5.374,0-9.306-2.849-10.845-7.29-.24.013-.476.033-.721.033-7,0-11.566-4.821-11.566-11.71A11.332,11.332,0,0,1,204.272,29.351Z" />
  <path class="a"
    d="M285.161,89.948c.271,0,.534.018.8.039A11.9,11.9,0,0,1,306.665,91c.38-.034.765-.056,1.159-.056a11.363,11.363,0,0,1,11.588,11.517c0,6.948-4.838,11.732-11.589,11.732a11.71,11.71,0,0,1-7.687-2.6,9.071,9.071,0,0,1-5.968,2.078c-4.185,0-7.247-2.22-8.446-5.678-.187.01-.371.025-.562.025-5.449,0-9.007-3.754-9.007-9.12A8.825,8.825,0,0,1,285.161,89.948Z" />
  <path class="d"
    d="M19.568,2.428a18.8,18.8,0,0,1,22.737,14.61c2.41,11.238-3.756,20.655-14.675,23C16.291,42.465,7.211,36.241,4.817,25.075A18.781,18.781,0,0,1,19.568,2.428Z" />
  <path class="c"
    d="M20.1,4.357a16.974,16.974,0,0,1,18.511,8.372c3.325,6.09,3.063,14.46-1.615,19.794A18.9,18.9,0,0,1,17.449,37.7c-6.609-2.2-10.7-9.024-11.05-15.78A17.106,17.106,0,0,1,9.684,10.8,17.513,17.513,0,0,1,20.1,4.357C22.611,3.8,21.548-.061,19.037.5A21.028,21.028,0,0,0,2.469,18.967C1.639,27.346,6,36.608,13.673,40.429c7.783,3.877,17.884,2.286,24.409-3.35,6.608-5.707,8.334-15.481,5.291-23.487A21.169,21.169,0,0,0,34.194,2.667,21.584,21.584,0,0,0,19.037.5C16.517,1.017,17.583,4.874,20.1,4.357Z" />
  <path class="c"
    d="M38.5,64.87q-1.306-5.12-2.612-10.24a2,2,0,0,0-3.857,1.063q1.305,5.121,2.612,10.241A2,2,0,0,0,38.5,64.87Z" />
  <path class="c"
    d="M12.442,56.709q-1.226,13.047-2.431,26.1a2.015,2.015,0,0,0,2,2,2.043,2.043,0,0,0,2-2q1.215-13.049,2.431-26.1a2.015,2.015,0,0,0-2-2,2.043,2.043,0,0,0-2,2Z" />
  <path class="c"
    d="M70.865,10.592,59.679,12.667a2.01,2.01,0,0,0-1.4,2.46,2.052,2.052,0,0,0,2.46,1.4l11.186-2.075a2.011,2.011,0,0,0,1.4-2.461,2.053,2.053,0,0,0-2.46-1.4Z" />
  <path class="c"
    d="M83.5,38.612q-11.9-3.678-23.8-7.364c-2.465-.762-3.519,3.1-1.063,3.857q11.9,3.675,23.8,7.364c2.465.762,3.519-3.1,1.063-3.857Z" />
  <path class="c"
    d="M63.569,60.033q-6.422-6.656-12.838-13.314A2,2,0,0,0,47.9,49.547Q54.32,56.206,60.74,62.862a2,2,0,0,0,2.829-2.829Z" />
  <path class="c"
    d="M204.272,31.351c.343.007.681.025,1.023.05a1.99,1.99,0,0,0,1.727-.991,13.2,13.2,0,0,1,12.372-6.1,12.942,12.942,0,0,1,10.763,7.4,1.943,1.943,0,0,0,1.727.99,13.461,13.461,0,0,1,9.658,2.681,12.831,12.831,0,0,1,4.611,8.279C247,50.193,243.326,56.52,236.8,58.1a13.977,13.977,0,0,1-11.882-2.367,2.076,2.076,0,0,0-2.828,0c-4.811,3.948-13,2.237-15.165-3.739a2.053,2.053,0,0,0-1.928-1.469,9.958,9.958,0,0,1-7.182-2.146,9.5,9.5,0,0,1-3.08-6.667,9.537,9.537,0,0,1,9.541-10.359c2.572-.035,2.579-4.035,0-4a13.533,13.533,0,0,0-12.965,9.432c-1.673,5.4.071,11.8,4.649,15.2a13.9,13.9,0,0,0,9.037,2.538l-1.929-1.468a12.827,12.827,0,0,0,8.5,8.171,14.605,14.605,0,0,0,13.352-2.667h-2.828c6.94,5.683,18.437,5.289,24.291-1.849a17.746,17.746,0,0,0-.853-23.088,17.074,17.074,0,0,0-13.64-4.918l1.727.991a16.959,16.959,0,0,0-14.217-9.386,17.181,17.181,0,0,0-15.826,8.082l1.727-.99c-.342-.025-.68-.043-1.023-.05C201.7,27.3,201.7,31.3,204.272,31.351Z" />
  <path class="c"
    d="M285.161,91.948c.266,0,.531.015.8.039A1.993,1.993,0,0,0,287.684,91a9.827,9.827,0,0,1,9.13-4.54,9.66,9.66,0,0,1,8.124,5.556,1.945,1.945,0,0,0,1.727.99,9.837,9.837,0,0,1,8.734,3.49,10.235,10.235,0,0,1,1.64,8.928,8.887,8.887,0,0,1-5.449,6.126,10.593,10.593,0,0,1-10.04-1.365,2.079,2.079,0,0,0-2.829,0c-3.5,2.847-9.482,1.61-11.071-2.717A2.053,2.053,0,0,0,285.722,106c-4.01.233-7.3-2.279-7.549-6.4a6.987,6.987,0,0,1,6.988-7.643c2.571-.045,2.579-4.045,0-4a11.01,11.01,0,0,0-10.988,11.643A10.777,10.777,0,0,0,285.722,110l-1.929-1.468a10.478,10.478,0,0,0,7.008,6.7,11.858,11.858,0,0,0,10.749-2.215h-2.829c5.564,4.522,14.655,4.326,19.441-1.317a14.262,14.262,0,0,0-.561-18.73A13.742,13.742,0,0,0,306.665,89l1.727.991a13.677,13.677,0,0,0-11.578-7.537,13.829,13.829,0,0,0-12.584,6.522l1.727-.991c-.265-.024-.53-.036-.8-.039C282.586,87.875,282.588,91.875,285.161,91.948Z" />
  <path class="a"
    d="M221.244,122.171c0,3.2-2.231,6.364-6.418,8.782a31.725,31.725,0,0,1-30.733.109c-4.575-2.641-6.816-5.861-6.672-9.084.039-3.092,2.28-6.16,6.67-8.7l30.735.115c4.189,2.419,6.419,5.571,6.419,8.775" />
  <path class="d"
    d="M212.314,111.441c-2.9-3.587-7.406-5.718-12.982-5.718-7.533,0-13.406,4.158-15.637,10.7a4.571,4.571,0,0,0,1.182,1.386,5.849,5.849,0,0,0,3.645,1.011,12.765,12.765,0,0,1,1.313.1,17.845,17.845,0,0,0,19.3-.017,7.77,7.77,0,0,1,1.007-.085,5.829,5.829,0,0,0,3.645-1.011,4.557,4.557,0,0,0,1.2-1.426A15.7,15.7,0,0,0,212.314,111.441Z" />
  <path class="c"
    d="M217.945,122.543c-.057-7.311-3.632-14.262-10.554-17.224-7.092-3.034-16.195-1.8-21.625,3.887a19.348,19.348,0,0,0-5.046,13.185c-.046,2.575,3.954,2.576,4,0,.121-6.746,4-12.6,10.724-14.226,5.566-1.346,12.143.191,15.651,4.951a15.916,15.916,0,0,1,2.85,9.427c.02,2.573,4.02,2.579,4,0Z" />
  <path class="c"
    d="M193.76,110.225a57.18,57.18,0,0,0-5.278-8.892,2.048,2.048,0,0,0-2.737-.718,2.023,2.023,0,0,0-.717,2.737,57.1,57.1,0,0,1,5.278,8.892,2.011,2.011,0,0,0,2.737.718,2.054,2.054,0,0,0,.717-2.737Z" />
  <path class="c"
    d="M189.633,121.156a20.177,20.177,0,0,0,19.4.167c2.265-1.227.247-4.682-2.019-3.454a16.031,16.031,0,0,1-15.361-.167c-2.243-1.271-4.261,2.184-2.019,3.454Z" />
  <path class="c"
    d="M213.816,115.118c.489.285.969.585,1.433.908q.181.126.361.258c.049.036.381.293.144.106s.085.07.133.109q.162.132.321.27a13.765,13.765,0,0,1,1.02.972q.242.255.469.525c.067.079.131.161.2.241.125.15-.279-.378-.015-.014a9.842,9.842,0,0,1,.665,1.047c.1.183.19.371.28.559.142.3-.022.013-.047-.119a2.408,2.408,0,0,0,.116.309,7.539,7.539,0,0,1,.308,1.146c.015.083.058.414.014.049s-.007-.035,0,.049c.019.211.027.422.029.633a2,2,0,0,0,4,0c-.036-4.693-3.595-8.28-7.41-10.5a2,2,0,0,0-2.019,3.454Z" />
  <path class="c"
    d="M183.081,111.549c-3.824,2.232-7.624,5.755-7.661,10.513a2,2,0,0,0,4,0c0-.2.01-.4.028-.6.008-.086.045-.406,0-.036s0,.051.013-.035a7.058,7.058,0,0,1,.3-1.1c.035-.1.085-.2.114-.3-.159.537-.1.236-.028.083s.163-.33.252-.491a10.733,10.733,0,0,1,.725-1.114c.142-.2-.281.344-.052.07.079-.1.157-.19.238-.284q.23-.266.474-.517c.344-.355.708-.691,1.085-1.01q.135-.114.273-.225c.078-.064.409-.389.051-.044a5.312,5.312,0,0,1,.667-.482c.5-.347,1.017-.669,1.542-.975a2,2,0,1,0-2.019-3.454Z" />
  <path class="b"
    d="M177.979,127.264a25.83,25.83,0,0,1-.56-5.09c0,.035,0,.069,0,.1,0,3.123,2.242,6.225,6.675,8.784a31.725,31.725,0,0,0,30.733-.109c4.187-2.418,6.418-5.577,6.418-8.782,0-.042,0-.084,0-.127-.1,12.933-8.732,21.96-21.912,21.96-10.138,0-17.995-5.707-20.8-14.638Q178.21,128.342,177.979,127.264Z" />
  <path class="c"
    d="M219.244,121.818c-.046,7.819-3.7,15.315-11.143,18.511-7.542,3.239-17.344,1.954-23.184-3.991a20.588,20.588,0,0,1-5.5-14.32c-.039-2.571-4.039-2.579-4,0a25.225,25.225,0,0,0,5.391,15.713,22.512,22.512,0,0,0,12,7.488c9.41,2.344,20.01-.451,25.885-8.415a25.422,25.422,0,0,0,4.546-14.986c.015-2.574-3.985-2.577-4,0Z" />
  <path class="c"
    d="M175.418,122.278c.178,8.149,10.016,12.569,16.824,13.971a33.724,33.724,0,0,0,23.98-3.8c3.7-2.247,6.923-5.74,7.022-10.28.056-2.575-3.944-2.574-4,0-.063,2.9-2.366,5.129-4.665,6.593a27.542,27.542,0,0,1-9.461,3.663,29.221,29.221,0,0,1-19.844-2.994c-2.624-1.49-5.783-3.827-5.856-7.155-.055-2.57-4.056-2.579-4,0Z" />
</svg>
